REM DIRINDEX 1\2,1\3,1\4,1\5
REM DIRNAME "folder01","folder02","folder03","folder04","folder05"
TITLE ""
FILE "P1Q_t_0749-0758.mp3" MP3
  TRACK 01 AUDIO
    TITLE "3:cjc173_3188"
    INDEX 01 00:00:00
  TRACK 02 AUDIO
    TITLE "0:"
    INDEX 01 00:01:45
  TRACK 03 AUDIO
    TITLE "4:cjc173_3189"
    INDEX 01 00:01:65
  TRACK 04 AUDIO
    TITLE "0:"
    INDEX 01 00:02:70
  TRACK 05 AUDIO
    TITLE "5:cjc173_3190"
    INDEX 01 00:03:16
  TRACK 06 AUDIO
    TITLE "0:"
    INDEX 01 00:07:14
  TRACK 07 AUDIO
    TITLE "3:cjc173_3191"
    INDEX 01 00:07:61
  TRACK 08 AUDIO
    TITLE "0:"
    INDEX 01 00:08:73
  TRACK 09 AUDIO
    TITLE "4:cjc173_3192"
    INDEX 01 00:09:15
  TRACK 10 AUDIO
    TITLE "0:"
    INDEX 01 00:11:32
  TRACK 11 AUDIO
    TITLE "5:cjc173_3193"
    INDEX 01 00:11:53
  TRACK 12 AUDIO
    TITLE "0:"
    INDEX 01 00:15:47
  TRACK 13 AUDIO
    TITLE "3:cjc173_3194"
    INDEX 01 00:16:21
  TRACK 14 AUDIO
    TITLE "0:"
    INDEX 01 00:17:38
  TRACK 15 AUDIO
    TITLE "4:cjc173_3195"
    INDEX 01 00:17:58
  TRACK 16 AUDIO
    TITLE "0:"
    INDEX 01 00:21:71
  TRACK 17 AUDIO
    TITLE "5:cjc173_3196"
    INDEX 01 00:22:16
  TRACK 18 AUDIO
    TITLE "0:"
    INDEX 01 00:26:10
  TRACK 19 AUDIO
    TITLE "3:cjc173_3197"
    INDEX 01 00:26:55
  TRACK 20 AUDIO
    TITLE "0:"
    INDEX 01 00:27:74
  TRACK 21 AUDIO
    TITLE "4:cjc173_3198"
    INDEX 01 00:28:20
  TRACK 22 AUDIO
    TITLE "0:"
    INDEX 01 00:31:44
  TRACK 23 AUDIO
    TITLE "5:cjc173_3199"
    INDEX 01 00:31:70
  TRACK 24 AUDIO
    TITLE "0:"
    INDEX 01 00:36:65
  TRACK 25 AUDIO
    TITLE "3:cjc173_3200"
    INDEX 01 00:37:33
  TRACK 26 AUDIO
    TITLE "0:"
    INDEX 01 00:38:30
  TRACK 27 AUDIO
    TITLE "4:cjc173_3201"
    INDEX 01 00:38:52
  TRACK 28 AUDIO
    TITLE "0:"
    INDEX 01 00:39:51
  TRACK 29 AUDIO
    TITLE "5:cjc173_3202"
    INDEX 01 00:39:65
  TRACK 30 AUDIO
    TITLE "0:"
    INDEX 01 00:45:17
  TRACK 31 AUDIO
    TITLE "3:cjc173_3203"
    INDEX 01 00:45:72
  TRACK 32 AUDIO
    TITLE "0:"
    INDEX 01 00:46:69
  TRACK 33 AUDIO
    TITLE "4:cjc173_3204"
    INDEX 01 00:47:16
  TRACK 34 AUDIO
    TITLE "0:"
    INDEX 01 00:49:38
  TRACK 35 AUDIO
    TITLE "5:cjc173_3205"
    INDEX 01 00:49:58
  TRACK 36 AUDIO
    TITLE "0:"
    INDEX 01 00:53:59
  TRACK 37 AUDIO
    TITLE "3:cjc173_3206"
    INDEX 01 00:54:30
  TRACK 38 AUDIO
    TITLE "0:"
    INDEX 01 00:55:39
  TRACK 39 AUDIO
    TITLE "4:cjc173_3207"
    INDEX 01 00:55:60
  TRACK 40 AUDIO
    TITLE "0:"
    INDEX 01 00:58:31
  TRACK 41 AUDIO
    TITLE "5:cjc173_3208"
    INDEX 01 00:58:51
  TRACK 42 AUDIO
    TITLE "0:"
    INDEX 01 01:02:72
  TRACK 43 AUDIO
    TITLE "3:cjc173_3209"
    INDEX 01 01:03:44
  TRACK 44 AUDIO
    TITLE "0:"
    INDEX 01 01:04:55
  TRACK 45 AUDIO
    TITLE "4:cjc173_3210"
    INDEX 01 01:05:02
  TRACK 46 AUDIO
    TITLE "0:"
    INDEX 01 01:07:32
  TRACK 47 AUDIO
    TITLE "5:cjc173_3211"
    INDEX 01 01:07:54
  TRACK 48 AUDIO
    TITLE "0:"
    INDEX 01 01:11:67
  TRACK 49 AUDIO
    TITLE "3:cjc173_3212"
    INDEX 01 01:12:41
  TRACK 50 AUDIO
    TITLE "0:"
    INDEX 01 01:13:58
  TRACK 51 AUDIO
    TITLE "4:cjc173_3213"
    INDEX 01 01:14:05
  TRACK 52 AUDIO
    TITLE "0:"
    INDEX 01 01:16:55
  TRACK 53 AUDIO
    TITLE "5:cjc173_3214"
    INDEX 01 01:16:74
  TRACK 54 AUDIO
    TITLE "0:"
    INDEX 01 01:21:70
  TRACK 55 AUDIO
    TITLE "3:cjc173_3215"
    INDEX 01 01:22:40
  TRACK 56 AUDIO
    TITLE "0:"
    INDEX 01 01:23:55
  TRACK 57 AUDIO
    TITLE "4:cjc173_3216"
    INDEX 01 01:24:03
  TRACK 58 AUDIO
    TITLE "0:"
    INDEX 01 01:26:06
  TRACK 59 AUDIO
    TITLE "5:cjc173_3217"
    INDEX 01 01:26:20
  TRACK 60 AUDIO
    TITLE "0:"
    INDEX 01 01:29:63
